<svg xmlns="http://www.w3.org/2000/svg" width="156" height="29.727" viewBox="0 0 156 29.727">
  <g id="Group_419" data-name="Group 419" transform="translate(-144 -9516)">
    <g id="Group_419-2" data-name="Group 419" transform="translate(144 9516.097)">
      <path id="Path_351" data-name="Path 351" d="M.018.694v29.63H12.2V13.455L9.229,17.449V26.8H3.549V4.223h22.6V26.8h-5.71V15.451l-6.389-6v20.87H29.68V.694Z" transform="translate(-0.018 -0.694)" fill="#2b2e34"/>
    </g>
    <g id="Group_420" data-name="Group 420" transform="translate(181.561 9516)">
      <path id="Path_352" data-name="Path 352" d="M188.476,5.876l-2.365,5.677h4.649Zm7.542,12.667h-2.4l-2-4.92h-6.391l-2.03,4.92h-2.351L188.483.5ZM173.025,1.709h2.191V18.544h-2.191ZM162.907,16.475h4.251v2.069h-6.443V1.709h2.191Zm-15.291-10.6-2.365,5.677H149.9ZM147.624.5l7.533,18.048h-2.4l-2.006-4.92h-6.392l-2.028,4.92h-2.353ZM135.775,1.709h2.334l-6.687,18.364L124.707,1.709h2.361l4.376,12.2Zm-18.891,0h2.189V18.544h-2.189ZM107.176,5.1a2.113,2.113,0,0,0-.725-.765,3.228,3.228,0,0,0-1.068-.409,8.04,8.04,0,0,0-1.278-.153h-.841V9.188c.109,0,.225,0,.347-.01.156-.008.3-.012.449-.012h.3a3.856,3.856,0,0,0,2.276-.708,2.471,2.471,0,0,0,.815-2.107Zm-1.611,5.97,5.238,7.475h-2.647l-4.892-7.206v7.206h-2.19V1.709h2.835a9.6,9.6,0,0,1,2.085.225,5.212,5.212,0,0,1,1.832.783,4.015,4.015,0,0,1,1.289,1.46,4.665,4.665,0,0,1,.479,2.219,4.492,4.492,0,0,1-1.277,3.432ZM86.81,9.913h7.482v.37a14,14,0,0,1-.3,2.912,6.189,6.189,0,0,1-1.332,2.683A8.422,8.422,0,0,1,89.8,18.037a8.206,8.206,0,0,1-3.516.8,8.893,8.893,0,0,1-3.452-.668,8.137,8.137,0,0,1-2.756-1.884,8.609,8.609,0,0,1-1.842-2.845,9.416,9.416,0,0,1-.656-3.516,7.747,7.747,0,0,1,.712-3.269,8.694,8.694,0,0,1,1.916-2.683,9.412,9.412,0,0,1,2.817-1.82,8.8,8.8,0,0,1,3.429-.683,7.531,7.531,0,0,1,4.014,1.084,12.218,12.218,0,0,1,3.062,2.7l.23.283L92.1,6.928l-.236-.305A10.081,10.081,0,0,0,89.5,4.4a5.277,5.277,0,0,0-3-.865,6.654,6.654,0,0,0-2.6.511,6.979,6.979,0,0,0-2.147,1.4A6.782,6.782,0,0,0,80.3,7.49a5.729,5.729,0,0,0-.533,2.441,7.1,7.1,0,0,0,.5,2.676,6.925,6.925,0,0,0,1.377,2.184,6.32,6.32,0,0,0,2.043,1.452,5.907,5.907,0,0,0,4.165.274,6.531,6.531,0,0,0,1.634-.745,6.452,6.452,0,0,0,1.4-1.218,5.2,5.2,0,0,0,.96-1.64,3.264,3.264,0,0,0,.151-.608c.015-.1.027-.211.04-.327H86.81Z" transform="translate(-77.579 -0.496)" fill="#2b2e34"/>
    </g>
    <g id="Group_421" data-name="Group 421" transform="translate(183.221 9539.539)">
      <path id="Path_353" data-name="Path 353" d="M195.88,52.363v2.291H195.4V52.363l-1.748-3.051h.554l1.447,2.539,1.47-2.539h.554Zm-11.342-2.61v4.9h-.481v-4.9h-1.339v-.441h3.158v.441Zm-10.717-.44h.481v5.341h-.481Zm-10.3,5.341v-5.34H164v4.9h1.41v.441Zm-10.685-4.4-.97,2.33h1.908Zm1.787,4.4-.665-1.633h-2.284L151,54.653h-.513l2.349-5.549,2.317,5.549Zm-13.01-4.9v4.9h-.481v-4.9h-1.339v-.441h3.158v.441Zm-10.717-.44h.481v5.341H130.9Zm-8.986,1.446q0-1.005-1.211-1h-.537V51.77h.593a1.249,1.249,0,0,0,.846-.267Zm.481.019a1.327,1.327,0,0,1-.435,1.053,1.743,1.743,0,0,1-1.19.38h-.6v2.442h-.481V49.312h1a2.506,2.506,0,0,1,.73.092,1.346,1.346,0,0,1,.521.3,1.386,1.386,0,0,1,.335.465ZM110.945,53.14a1.5,1.5,0,0,1-.132.628,1.637,1.637,0,0,1-.356.508,1.721,1.721,0,0,1-1.186.472,1.563,1.563,0,0,1-1.022-.336,1.883,1.883,0,0,1-.6-.921l.433-.152a1.738,1.738,0,0,0,.436.712,1.062,1.062,0,0,0,.751.257,1.254,1.254,0,0,0,.468-.089,1.125,1.125,0,0,0,.633-.617,1.176,1.176,0,0,0,.092-.465.72.72,0,0,0-.189-.509,1.79,1.79,0,0,0-.468-.357q-.28-.153-.605-.293a4.217,4.217,0,0,1-.605-.321,1.761,1.761,0,0,1-.469-.437,1.068,1.068,0,0,1-.188-.65,1.325,1.325,0,0,1,.108-.541,1.211,1.211,0,0,1,.308-.421,1.472,1.472,0,0,1,.473-.276,1.729,1.729,0,0,1,.6-.1,1.382,1.382,0,0,1,.729.2,1.636,1.636,0,0,1,.561.589l-.369.264a1.475,1.475,0,0,0-.429-.477.962.962,0,0,0-.525-.139,1.068,1.068,0,0,0-.385.068,1.015,1.015,0,0,0-.308.184.836.836,0,0,0-.285.637.693.693,0,0,0,.189.5,1.892,1.892,0,0,0,.468.349,6.279,6.279,0,0,0,.605.284,3.562,3.562,0,0,1,.605.316,1.748,1.748,0,0,1,.469.452Zm-12.2-1.149a2.267,2.267,0,0,0-.18-.9,2.322,2.322,0,0,0-1.223-1.231,2.169,2.169,0,0,0-.889-.185,2.24,2.24,0,0,0-.9.181,2.307,2.307,0,0,0-.729.5,2.387,2.387,0,0,0-.494.739,2.342,2.342,0,0,0,0,1.8,2.333,2.333,0,0,0,1.227,1.239,2.208,2.208,0,0,0,.894.185,2.179,2.179,0,0,0,.889-.185,2.341,2.341,0,0,0,1.223-1.239Zm.481,0a2.616,2.616,0,0,1-.221,1.069,2.843,2.843,0,0,1-1.477,1.473,2.633,2.633,0,0,1-1.072.22,2.683,2.683,0,0,1-1.083-.22,2.831,2.831,0,0,1-1.481-1.473,2.689,2.689,0,0,1,0-2.134,2.787,2.787,0,0,1,1.485-1.469,2.69,2.69,0,0,1,1.08-.22,2.628,2.628,0,0,1,1.071.22,2.891,2.891,0,0,1,.879.592,2.794,2.794,0,0,1,.6.877ZM84.469,54.653V51.97H81.488v2.683h-.481v-5.34h.481V51.53H84.47V49.312h.465v5.341Z" transform="translate(-81.007 -49.104)" fill="#2b2e34"/>
    </g>
  </g>
</svg>
