<svg xmlns="http://www.w3.org/2000/svg" width="220" height="40" viewBox="0 0 220 40" fill="#f2eeea">
  <g id="Group_418" data-name="Group 418" transform="translate(-259.172 -273.69)" style="mix-blend-mode: multiply;isolation: isolate">
    <rect id="Rectangle_105" data-name="Rectangle 105" width="220" height="40" transform="translate(259.172 273.69)" fill="#f2eeea"/>
    <path id="Path_311" data-name="Path 311" d="M266.1,288.947h-.852V278.714h-6.077v-.854h12.989v.854H266.1Z" transform="translate(0 -1.388)" fill="#1a1818"/>
    <path id="Path_312" data-name="Path 312" d="M295.284,281.188c0-2.19-1.4-2.643-2.949-2.643h-7.026c-1.548,0-2.952.452-2.952,2.643v4.318c0,2.177,1.39,2.661,2.952,2.661h7.026c1.561,0,2.949-.484,2.949-2.661Zm-9.831,7.831c-3.028,0-3.966-1.274-3.966-4.108v-3.127c0-2.819.937-4.094,3.966-4.094h6.721c3.027,0,3.961,1.275,3.961,4.094v3.127c0,2.834-.934,4.108-3.961,4.108Z" transform="translate(-7.426 -1.331)" fill="#1a1818"/>
    <path id="Path_313" data-name="Path 313" d="M356.387,283.662H344.8v5.285h-.887V277.861h.874v4.947h11.587v-4.947h.852v11.087h-.839Z" transform="translate(-28.201 -1.388)" fill="#1a1818"/>
    <path id="Path_314" data-name="Path 314" d="M382.417,281.188c0-2.19-1.4-2.643-2.949-2.643h-7.026c-1.549,0-2.952.452-2.952,2.643v4.318c0,2.177,1.39,2.661,2.952,2.661h7.026c1.561,0,2.949-.484,2.949-2.661Zm-9.831,7.831c-3.029,0-3.965-1.274-3.965-4.108v-3.127c0-2.819.936-4.094,3.965-4.094h6.721c3.027,0,3.961,1.275,3.961,4.094v3.127c0,2.834-.934,4.108-3.961,4.108Z" transform="translate(-36.424 -1.331)" fill="#1a1818"/>
    <path id="Path_315" data-name="Path 315" d="M400.351,288.947H399.5V278.714h-6.077v-.854h12.99v.854h-6.06Z" transform="translate(-44.677 -1.388)" fill="#1a1818"/>
    <path id="Path_316" data-name="Path 316" d="M416.2,277.861h11.071v.854H417.035v4.093h9.848v.855h-9.848V288.1h10.3v.853H416.216Z" transform="translate(-52.257 -1.388)" fill="#1a1818"/>
    <path id="Path_317" data-name="Path 317" d="M437.063,277.861h.9V288.1h9.347v.853h-10.23Z" transform="translate(-59.201 -1.388)" fill="#1a1818"/>
    <path id="Path_318" data-name="Path 318" d="M466.294,289.019c-3.031,0-3.965-1.274-3.965-4.108v-3.127c0-2.819.934-4.094,3.965-4.094H472.3c2.224,0,3.965.5,4.142,3.143h-.823c-.258-2.142-1.579-2.288-3.609-2.288h-5.865c-1.548,0-2.948.452-2.948,2.643v4.3c0,2.174,1.385,2.658,2.948,2.658h6.72c1.627,0,2.754-.725,2.754-2.352v-2.193h-6.236v-.855h7.124v2.24c0,2.675-.951,4.029-3.709,4.029Z" transform="translate(-67.609 -1.331)" fill="#1a1818"/>
    <path id="Path_319" data-name="Path 319" d="M525.822,281.188c0-2.19-1.4-2.643-2.95-2.643h-7.027c-1.545,0-2.946.452-2.946,2.643v4.318c0,2.177,1.384,2.661,2.946,2.661h7.027c1.565,0,2.95-.484,2.95-2.661Zm-9.829,7.831c-3.031,0-3.967-1.274-3.967-4.108v-3.127c0-2.819.935-4.094,3.967-4.094h6.719c3.031,0,3.966,1.275,3.966,4.094v3.127c0,2.834-.935,4.108-3.966,4.108Z" transform="translate(-84.148 -1.331)" fill="#1a1818"/>
    <path id="Path_320" data-name="Path 320" d="M552.051,284.968c0,2.836-.92,4.108-3.949,4.108h-5.447c-3.031,0-3.965-1.272-3.965-4.108v-7.107h.869v7.7c0,2.178,1.388,2.661,2.95,2.661h5.737c1.565,0,2.95-.483,2.95-2.661v-7.7h.856Z" transform="translate(-93.021 -1.388)" fill="#1a1818"/>
    <path id="Path_321" data-name="Path 321" d="M573.232,278.714h-8.474v4.852h8.6c1.306,0,2.208-.242,2.208-1.856v-1.077c0-1.565-.484-1.92-2.339-1.92m-8.46,5.689v4.544H563.9V277.861h9.413c1.884,0,3.141.386,3.141,2.579v1.467c0,1.047-.289,2.5-3.061,2.5Z" transform="translate(-101.412 -1.388)" fill="#1a1818"/>
    <path id="Path_322" data-name="Path 322" d="M318.056,278.708h-8.478v4.851h8.592c1.305,0,2.205-.242,2.205-1.855v-1.079c0-1.561-.481-1.917-2.319-1.917m-4.638,5.689h-3.84v4.544h-.852V277.853h9.394c1.934,0,3.143.387,3.143,2.577V281.9c0,1.047-.288,2.5-3.045,2.5h-4.8Z" transform="translate(-16.491 -1.385)" fill="#1a1818"/>
    <path id="Path_323" data-name="Path 323" d="M323.223,291.736V289.9c0-2.191-1.4-2.658-2.949-2.658h-3.093V286.4h2.933c3.029,0,3.962,1.273,3.962,4.094v1.238Z" transform="translate(-19.305 -4.231)" fill="#1a1818"/>
    <path id="Path_324" data-name="Path 324" d="M497.737,278.708h-8.476v4.851h8.59c1.305,0,2.206-.242,2.206-1.855v-1.079c0-1.561-.481-1.917-2.321-1.917M493.1,284.4h-3.838v4.544h-.853V277.853H497.8c1.935,0,3.141.387,3.141,2.577V281.9c0,1.047-.288,2.5-3.042,2.5h-4.8Z" transform="translate(-76.288 -1.385)" fill="#1a1818"/>
    <path id="Path_325" data-name="Path 325" d="M502.906,291.736V289.9c0-2.191-1.4-2.658-2.949-2.658h-3.093V286.4H499.8c3.03,0,3.961,1.273,3.961,4.094v1.238Z" transform="translate(-79.102 -4.231)" fill="#1a1818"/>
    <path id="Path_326" data-name="Path 326" d="M356.508,306.325a.117.117,0,0,1-.1.045.141.141,0,0,1-.1-.045c.042-.694.016-.818-.837-.818h-.535c-.29,0-.29.02-.4.388l-1.21,3.873c-.265.825-.274,1,.157,1.045l.323.027a.128.128,0,0,1-.034.22c-.484-.025-.781-.025-1.158-.025-.362,0-.661,0-1.074.025a.124.124,0,0,1-.051-.105.177.177,0,0,1,.041-.114l.344-.027c.386-.026.51-.157.789-1.045l1.214-3.873c.113-.388.105-.388-.185-.388h-.58a1.429,1.429,0,0,0-1.477.792.143.143,0,0,1-.2-.089,12.578,12.578,0,0,0,.631-1.177.085.085,0,0,1,.079-.034.094.094,0,0,1,.088.034c-.026.167.1.2.632.2h3.251c.447,0,.571-.026.745-.2a.126.126,0,0,1,.15.045,6.777,6.777,0,0,0-.5,1.247" transform="translate(-30.703 -10.419)" fill="#1a1818"/>
    <path id="Path_327" data-name="Path 327" d="M360.622,308.934c-.238-.051-.659.317-.993.993a4.871,4.871,0,0,0-.527,1.625c-.028.308.1.562.36.562.2,0,.413-.079.695-.457a5.456,5.456,0,0,0,.817-2.142c0-.273-.035-.582-.352-.582m.025,2.839a1.666,1.666,0,0,1-1.256.606c-.563,0-.941-.4-.878-1.169a3.353,3.353,0,0,1,.957-1.967,1.673,1.673,0,0,1,1.211-.572c.634,0,.933.466.9,1.107a3.335,3.335,0,0,1-.931,1.995" transform="translate(-33.058 -11.641)" fill="#1a1818"/>
    <path id="Path_328" data-name="Path 328" d="M366.774,309.63a.229.229,0,0,1-.167.1c-.062,0-.1-.045-.115-.14q-.065-.342-.185-.342c-.07,0-.175.086-.306.264a14.95,14.95,0,0,0-1.494,2.766.168.168,0,0,1-.149.106c-.088,0-.362-.043-.292-.23.123-.36.669-1.9.906-2.766.026-.1.009-.186-.07-.186-.237,0-.456.246-.623.458-.1.025-.15-.035-.139-.139.279-.484.613-.845,1.034-.845.449,0,.274.6.2.836L365,310.613h.044a10.4,10.4,0,0,1,.923-1.485.919.919,0,0,1,.641-.458c.307,0,.351.3.351.432a1.113,1.113,0,0,1-.184.527" transform="translate(-34.904 -11.641)" fill="#1a1818"/>
    <path id="Path_329" data-name="Path 329" d="M370.733,312.379a.262.262,0,0,1-.211-.22c0-.08.027-.141.211-.582.184-.42.51-1.3.712-1.73a2.108,2.108,0,0,0,.185-.641c0-.1-.009-.209-.141-.209-.22,0-.721.438-1.213,1.044a13.818,13.818,0,0,0-1.342,2.231.193.193,0,0,1-.159.106c-.107,0-.326-.027-.256-.23.037-.114.977-2.642,1.018-2.766s.045-.2-.023-.2a1.526,1.526,0,0,0-.8.439.111.111,0,0,1-.107-.132,1.869,1.869,0,0,1,1.308-.817c.213,0,.308.157.23.36l-.6,1.536.025.018c.625-.955,1.494-1.914,2.152-1.914a.432.432,0,0,1,.492.474,2.412,2.412,0,0,1-.141.615c-.159.438-.79,1.873-.817,1.94a.365.365,0,0,0-.023.123.041.041,0,0,0,.041.046,1.863,1.863,0,0,0,.825-.6c.134-.026.141.051.141.123a2.047,2.047,0,0,1-1.511.983" transform="translate(-36.385 -11.641)" fill="#1a1818"/>
    <path id="Path_330" data-name="Path 330" d="M376.782,306.4a.3.3,0,0,1-.317-.334c0-.193.133-.553.476-.553a.294.294,0,0,1,.308.335.525.525,0,0,1-.466.552m.019,1.7-1.046,2.5a.355.355,0,0,0-.027.132c0,.042.018.061.053.061a2.155,2.155,0,0,0,.913-.651.13.13,0,0,1,.132.149,2.745,2.745,0,0,1-1.643,1.047.2.2,0,0,1-.142-.08.2.2,0,0,1-.033-.238l1.116-2.66c.043-.1.043-.167-.017-.167a2.107,2.107,0,0,0-.73.465.119.119,0,0,1-.114-.149,2.549,2.549,0,0,1,1.448-.879.211.211,0,0,1,.141.089c.062.06.053.131-.051.386" transform="translate(-38.541 -10.59)" fill="#1a1818"/>
    <path id="Path_331" data-name="Path 331" d="M380.761,311.736a2.224,2.224,0,0,1-1.372.643c-.236,0-.4-.254-.4-.528a2.747,2.747,0,0,1,.22-.843l.605-1.573c.06-.166.043-.254-.062-.254-.165,0-.534.318-.817.615a.139.139,0,0,1-.131-.149c.282-.394.869-.975,1.387-.975.2,0,.388.254.274.581l-.756,1.958a1.561,1.561,0,0,0-.087.413c0,.15.069.315.253.315a1.64,1.64,0,0,0,.959-.649,2.861,2.861,0,0,0,.755-1.678,2.08,2.08,0,0,0-.079-.623.342.342,0,0,1,.326-.317c.281,0,.342.326.342.546a4.291,4.291,0,0,1-1.413,2.519" transform="translate(-39.811 -11.641)" fill="#1a1818"/>
    <path id="Path_332" data-name="Path 332" d="M386.333,308.934c-.238-.051-.66.317-.993.993a4.863,4.863,0,0,0-.526,1.625c-.028.308.1.562.36.562.2,0,.413-.079.694-.457a5.448,5.448,0,0,0,.817-2.142c0-.273-.035-.582-.352-.582m.026,2.839a1.668,1.668,0,0,1-1.256.606c-.563,0-.941-.4-.878-1.169a3.356,3.356,0,0,1,.957-1.967,1.674,1.674,0,0,1,1.211-.572c.634,0,.933.466.9,1.107a3.337,3.337,0,0,1-.931,1.995" transform="translate(-41.614 -11.641)" fill="#1a1818"/>
    <path id="Path_333" data-name="Path 333" d="M391.986,312.379a.241.241,0,0,1-.219-.31l.6-1.606-.019-.01c-.631.8-1.73,1.926-2.194,1.926-.361,0-.4-.36-.256-.745l.808-2.136c.063-.169.063-.255,0-.255-.168,0-.622.4-.835.6a.115.115,0,0,1-.148-.131,2.945,2.945,0,0,1,1.519-1.046c.114,0,.308.123.263.263l-.983,2.567c-.08.211-.036.3.061.3.131,0,.482-.28.939-.73a8.874,8.874,0,0,0,1.544-2.344c.189-.036.4.053.434.158-.1.237-.659,1.676-1.029,2.722a.375.375,0,0,0-.036.159c0,.043.027.059.069.059.167,0,.634-.412.863-.683.076-.027.15.017.156.122a2.615,2.615,0,0,1-1.537,1.116" transform="translate(-43.445 -11.641)" fill="#1a1818"/>
    <path id="Path_334" data-name="Path 334" d="M398.829,307.7a1.611,1.611,0,0,0-.849.449,3.5,3.5,0,0,0-.811.955c-.035.1-.025.16.091.132a3.506,3.506,0,0,0,1.288-.57,1.1,1.1,0,0,0,.566-.737c0-.107-.08-.23-.284-.23m.6.747a2.748,2.748,0,0,1-1.406.771.1.1,0,0,0-.042.08.282.282,0,0,0,.017.087,5.364,5.364,0,0,0,.322.827c.107.193.2.29.283.29.116,0,.282-.1.528-.413.077,0,.114.035.114.105-.309.658-.747.835-.887.835-.169,0-.263-.106-.406-.352a8.3,8.3,0,0,1-.405-.939c-.069-.229-.173-.325-.322-.291-.179.045-.221.08-.327.352l-.458,1.116a.161.161,0,0,1-.148.114c-.1,0-.354-.027-.282-.23l1.609-4.848c.207-.616.2-.73.059-.8l-.157-.08c-.063-.042-.063-.089-.017-.131a4.586,4.586,0,0,1,1.07-.317l.053.045c-.07.237-.177.543-.431,1.29l-.9,2.6h.018a4.577,4.577,0,0,1,.895-.905,1.636,1.636,0,0,1,.949-.334c.518,0,.632.3.632.483a.9.9,0,0,1-.36.642" transform="translate(-45.534 -10.296)" fill="#1a1818"/>
    <path id="Path_335" data-name="Path 335" d="M404.108,309.015c-.211,0-.352.1-.623.343a3.885,3.885,0,0,0-1.1,2.275c0,.114.041.167.131.167s.352-.115.853-.572a4.216,4.216,0,0,0,1.174-1.9.449.449,0,0,0-.436-.315m.156,2.538c-.062.149-.006.2.061.2.151,0,.407-.14.907-.588a.118.118,0,0,1,.122.114,2.313,2.313,0,0,1-1.475.984.242.242,0,0,1-.256-.238,1.193,1.193,0,0,1,.085-.343l.292-.791-.023-.007a3.693,3.693,0,0,1-1.936,1.378.442.442,0,0,1-.387-.492,3.8,3.8,0,0,1,.773-1.7,3.756,3.756,0,0,1,1.16-1.134,1.438,1.438,0,0,1,.792-.254.46.46,0,0,1,.21.051.514.514,0,0,1,.176.185l.247-.562a.371.371,0,0,1,.43.131c-.142.325-.9,2.268-1.178,3.066" transform="translate(-47.417 -11.528)" fill="#1a1818"/>
    <path id="Path_336" data-name="Path 336" d="M409.6,309.443a.152.152,0,0,1-.166-.068.676.676,0,0,0-.534-.283.356.356,0,0,0-.36.351,1.486,1.486,0,0,0,.3.8,1.5,1.5,0,0,1,.334.975,1.206,1.206,0,0,1-.458.843,1.344,1.344,0,0,1-.886.317.508.508,0,0,1-.534-.466.419.419,0,0,1,.131-.29.158.158,0,0,1,.237,0,.959.959,0,0,0,.606.351.48.48,0,0,0,.422-.5,1.82,1.82,0,0,0-.327-.773,1.741,1.741,0,0,1-.307-.816,1.169,1.169,0,0,1,.526-.923,1.154,1.154,0,0,1,.651-.289.528.528,0,0,1,.528.5.3.3,0,0,1-.16.272" transform="translate(-49.294 -11.641)" fill="#1a1818"/>
    <path id="Path_337" data-name="Path 337" d="M419.366,306.481c-.035.07-.193.062-.217-.007.041-.448.086-.694-.31-.784a3.5,3.5,0,0,0-.931-.078h-.482c-.24,0-.246.027-.334.3l-.608,1.923c-.06.185-.042.22.141.22h.607c.842,0,.991-.06,1.2-.429l.15-.273a.166.166,0,0,1,.229.017,10.526,10.526,0,0,0-.527,1.713.162.162,0,0,1-.114.046.166.166,0,0,1-.115-.046l.009-.334c0-.289-.175-.385-.9-.385h-.65c-.2,0-.212.028-.282.246l-.388,1.265c-.237.833-.288,1,.17,1.045l.339.025a.155.155,0,0,1-.034.221c-.5-.009-.818-.025-1.2-.025-.35,0-.649,0-.993.025a.126.126,0,0,1-.051-.105.185.185,0,0,1,.042-.115l.275-.025c.421-.043.508-.14.789-1.045l1.028-3.268c.254-.825.272-.94-.2-1.037l-.161-.034a.137.137,0,0,1,.054-.221c.29.027.57.027.947.027h1.633c.563,0,.983,0,1.239-.027-.069.141-.273.853-.361,1.168" transform="translate(-51.552 -10.524)" fill="#1a1818"/>
    <path id="Path_338" data-name="Path 338" d="M423.721,309.015c-.211,0-.353.1-.623.343a3.909,3.909,0,0,0-1.1,2.275c0,.114.045.167.131.167s.352-.115.852-.572a4.222,4.222,0,0,0,1.179-1.9.457.457,0,0,0-.441-.315m.157,2.538c-.059.149-.009.2.063.2.149,0,.4-.14.9-.588a.116.116,0,0,1,.123.114,2.314,2.314,0,0,1-1.475.984.245.245,0,0,1-.257-.238,1.109,1.109,0,0,1,.091-.343l.288-.791-.025-.007a3.674,3.674,0,0,1-1.932,1.378.443.443,0,0,1-.389-.492,3.77,3.77,0,0,1,.776-1.7,3.7,3.7,0,0,1,1.159-1.134,1.432,1.432,0,0,1,.789-.254.473.473,0,0,1,.211.051.557.557,0,0,1,.177.185l.245-.562a.371.371,0,0,1,.43.131c-.138.325-.894,2.268-1.178,3.066" transform="translate(-53.944 -11.528)" fill="#1a1818"/>
    <path id="Path_339" data-name="Path 339" d="M431.867,312.379a.261.261,0,0,1-.212-.22c0-.08.027-.141.212-.582.185-.42.542-1.281.711-1.73a2.48,2.48,0,0,0,.183-.641c0-.1-.007-.209-.14-.209-.254,0-.667.446-1.15,1.053a15.494,15.494,0,0,0-1.378,2.222.194.194,0,0,1-.159.106c-.105,0-.325-.027-.254-.23l.866-2.3c.045-.087.39-.85.073-.85-.246,0-.739.454-1.222,1.053a14.708,14.708,0,0,0-1.317,2.222.193.193,0,0,1-.16.106c-.1,0-.323-.027-.252-.23.036-.06.966-2.633,1-2.766.044-.167.027-.247-.062-.247a1.171,1.171,0,0,0-.773.483.108.108,0,0,1-.121-.132,1.5,1.5,0,0,1,1.352-.817c.2,0,.29.157.21.36l-.606,1.59.027.018c.632-1.029,1.456-1.968,2.124-1.968.634,0,.447.686.256,1.142l-.335.809.027.018c.843-1.346,1.5-1.968,2.091-1.968a.431.431,0,0,1,.491.474,2.188,2.188,0,0,1-.138.615c-.159.438-.793,1.873-.819,1.94a.372.372,0,0,0-.025.123.041.041,0,0,0,.042.046,1.87,1.87,0,0,0,.827-.6c.13-.026.14.051.14.123a2.045,2.045,0,0,1-1.51.983" transform="translate(-56.069 -11.641)" fill="#1a1818"/>
    <path id="Path_340" data-name="Path 340" d="M438.905,306.4a.3.3,0,0,1-.316-.334c0-.193.133-.553.476-.553a.294.294,0,0,1,.306.335.524.524,0,0,1-.466.552m.021,1.7-1.047,2.5a.352.352,0,0,0-.026.132c0,.042.017.061.051.061a2.158,2.158,0,0,0,.915-.651.131.131,0,0,1,.131.149,2.741,2.741,0,0,1-1.643,1.047.185.185,0,0,1-.139-.08.2.2,0,0,1-.038-.238l1.116-2.66c.046-.1.046-.167-.017-.167a2.13,2.13,0,0,0-.729.465.119.119,0,0,1-.115-.149,2.554,2.554,0,0,1,1.449-.879.211.211,0,0,1,.141.089c.059.06.051.131-.051.386" transform="translate(-59.215 -10.59)" fill="#1a1818"/>
    <path id="Path_341" data-name="Path 341" d="M443.314,304.682c-.111.306-.191.563-.517,1.511l-1.388,4.146c-.059.194-.052.29.035.29.193,0,.605-.44,1.012-.887.1-.01.142.025.142.122-.229.439-.794,1.169-1.511,1.169-.275,0-.343-.123-.343-.266a2.612,2.612,0,0,1,.189-.745l1.4-4.154c.208-.617.122-.7-.01-.766l-.16-.069a.092.092,0,0,1-.034-.073.072.072,0,0,1,.034-.071,4.4,4.4,0,0,1,1.109-.262Z" transform="translate(-60.425 -10.296)" fill="#1a1818"/>
    <path id="Path_342" data-name="Path 342" d="M445.321,311.623a11.8,11.8,0,0,1-1.448,2.107c-.651.739-1.088.888-1.368.888a.416.416,0,0,1-.457-.4.352.352,0,0,1,.35-.377.269.269,0,0,1,.238.141.3.3,0,0,0,.247.157.854.854,0,0,0,.482-.245,3.19,3.19,0,0,0,.773-1.318,9.457,9.457,0,0,0,.175-2c-.009-.973-.165-1.316-.332-1.316s-.326.29-.512.668c-.093.025-.14-.034-.166-.114.195-.6.571-1.134,1-1.134.45,0,.509.877.536,1.495a9.8,9.8,0,0,1-.132,1.931h.037a7.417,7.417,0,0,0,.738-1.511,7.179,7.179,0,0,0,.325-1.624c.025-.256.148-.273.212-.273a.593.593,0,0,1,.245.08.2.2,0,0,1,.077.174,6.888,6.888,0,0,1-1.019,2.681" transform="translate(-60.859 -11.641)" fill="#1a1818"/>
    <path id="Path_343" data-name="Path 343" d="M458.915,305.568c-.5.071-.536.167-.818,1.038l-1.02,3.267c-.254.808-.28,1,.167,1.045l.236.027a.148.148,0,0,1-.033.22c-.414-.025-.7-.025-1.074-.025s-.657,0-1.018.025a.125.125,0,0,1-.052-.105.184.184,0,0,1,.042-.114l.281-.027c.417-.043.5-.139.793-1.045l.42-1.335c.071-.238.071-.238-.317-.238h-2.39c-.281,0-.272.027-.332.211l-.43,1.362c-.255.817-.28,1,.167,1.045l.273.027a.154.154,0,0,1-.037.22c-.43-.025-.727-.025-1.1-.025-.344,0-.661.009-.941.025a.122.122,0,0,1-.051-.105.173.173,0,0,1,.042-.114l.2-.027c.422-.043.511-.157.791-1.045l1.026-3.267c.256-.809.28-.967-.2-1.038l-.211-.035a.134.134,0,0,1,.051-.219c.354.026.641.026,1.019.026s.645,0,1.022-.026a.143.143,0,0,1,0,.219l-.2.035c-.5.1-.532.167-.818,1.038l-.357,1.132c-.063.2-.063.21.254.21h2.317c.406,0,.4-.009.467-.191l.362-1.15c.253-.809.28-.967-.195-1.038l-.222-.035a.15.15,0,0,1,.055-.219c.362.026.651.026,1.028.026.36,0,.633,0,1.018-.026a.139.139,0,0,1,0,.219Z" transform="translate(-64.064 -10.524)" fill="#1a1818"/>
    <path id="Path_344" data-name="Path 344" d="M464.268,308.943c-.131,0-.351.08-.665.422a3.6,3.6,0,0,0-.651,1.028,2.722,2.722,0,0,0,1.176-.648,1.01,1.01,0,0,0,.345-.6.18.18,0,0,0-.2-.2m-1.4,1.713a2.155,2.155,0,0,0-.124.782.444.444,0,0,0,.421.5c.316,0,.538-.165.923-.51a.114.114,0,0,1,.115.149,1.783,1.783,0,0,1-1.407.8c-.527,0-.709-.492-.709-.924a3.271,3.271,0,0,1,1.308-2.363,1.7,1.7,0,0,1,1.055-.421.547.547,0,0,1,.554.526c0,.667-.871,1.108-2.134,1.458" transform="translate(-67.527 -11.641)" fill="#1a1818"/>
    <path id="Path_345" data-name="Path 345" d="M469.59,309.63a.234.234,0,0,1-.17.1c-.059,0-.093-.045-.113-.14-.043-.228-.1-.342-.183-.342s-.175.086-.309.264a14.713,14.713,0,0,0-1.489,2.766.175.175,0,0,1-.153.106c-.086,0-.361-.043-.288-.23.123-.36.665-1.9.9-2.766.026-.1.009-.186-.067-.186-.239,0-.458.246-.624.458-.1.025-.153-.035-.14-.139.28-.484.611-.845,1.034-.845.448,0,.274.6.2.836l-.378,1.106h.046a10.6,10.6,0,0,1,.92-1.485c.2-.273.424-.458.641-.458.31,0,.355.3.355.432a1.107,1.107,0,0,1-.185.527" transform="translate(-69.121 -11.641)" fill="#1a1818"/>
    <path id="Path_346" data-name="Path 346" d="M473,306.4a.3.3,0,0,1-.319-.334c0-.193.133-.553.476-.553a.293.293,0,0,1,.308.335.525.525,0,0,1-.465.552m.017,1.7-1.046,2.5a.37.37,0,0,0-.028.132c0,.042.02.061.055.061a2.172,2.172,0,0,0,.911-.651.129.129,0,0,1,.132.149,2.749,2.749,0,0,1-1.642,1.047.192.192,0,0,1-.14-.08.2.2,0,0,1-.034-.238l1.115-2.66c.043-.1.043-.167-.017-.167a2.076,2.076,0,0,0-.73.465.119.119,0,0,1-.115-.149,2.55,2.55,0,0,1,1.447-.879.2.2,0,0,1,.141.089c.064.06.054.131-.051.386" transform="translate(-70.561 -10.59)" fill="#1a1818"/>
    <path id="Path_347" data-name="Path 347" d="M477.519,308.526a.258.258,0,0,1-.108.326h-.957l-.789,2.309c-.063.165-.01.221.059.221a3.231,3.231,0,0,0,1-.793c.1,0,.14.053.124.159a2.884,2.884,0,0,1-1.686,1.266.254.254,0,0,1-.236-.237,1.482,1.482,0,0,1,.121-.5l.825-2.424h-.683a.194.194,0,0,1,.1-.246l.7-.124.491-.87a.269.269,0,0,1,.335.052l-.254.861Z" transform="translate(-71.801 -11.277)" fill="#1a1818"/>
    <path id="Path_348" data-name="Path 348" d="M480.671,309.015c-.212,0-.352.1-.624.343a3.9,3.9,0,0,0-1.1,2.275c0,.114.043.167.13.167s.354-.115.853-.572a4.226,4.226,0,0,0,1.177-1.9.453.453,0,0,0-.438-.315m.159,2.538c-.064.149-.011.2.058.2.153,0,.406-.14.908-.588a.118.118,0,0,1,.122.114,2.314,2.314,0,0,1-1.477.984.242.242,0,0,1-.254-.238,1.168,1.168,0,0,1,.086-.343l.292-.791-.027-.007a3.671,3.671,0,0,1-1.935,1.378c-.245,0-.384-.246-.384-.492a4.736,4.736,0,0,1,1.931-2.839,1.436,1.436,0,0,1,.793-.254.443.443,0,0,1,.207.051.5.5,0,0,1,.179.185l.245-.562a.37.37,0,0,1,.43.131c-.14.325-.9,2.268-1.174,3.066" transform="translate(-72.897 -11.528)" fill="#1a1818"/>
    <path id="Path_349" data-name="Path 349" d="M485.988,308.926c-.149,0-.316.052-.59.36a3.259,3.259,0,0,0-.791,1.616.283.283,0,0,0,.264.307.626.626,0,0,0,.246-.061,2.033,2.033,0,0,0,.667-.737,3.015,3.015,0,0,0,.465-1.187.278.278,0,0,0-.262-.3m-.309,4.269a3.309,3.309,0,0,0-.815-.438,1.423,1.423,0,0,0-.818.323.7.7,0,0,0-.332.572c0,.412.586.676,1.185.676.4,0,1.156-.175,1.156-.6,0-.15-.093-.332-.377-.536m1.715-4a1.033,1.033,0,0,1-.29-.042,1.623,1.623,0,0,0-.326-.052c-.042,0-.085.027-.076.052a1.1,1.1,0,0,1,.059.334,2.237,2.237,0,0,1-1.116,1.758,2.914,2.914,0,0,1-.624.227.386.386,0,0,0-.19.308.5.5,0,0,0,.288.412c.2.141.544.326.861.527.517.308.659.571.659.851,0,.492-.7,1.047-2.143,1.047-.642,0-1.388-.246-1.388-.835,0-.658,1.026-1.1,1.5-1.238-.236-.149-.28-.272-.28-.4,0-.165.272-.509.4-.676a.789.789,0,0,1-.642-.793,2.084,2.084,0,0,1,.711-1.477,1.986,1.986,0,0,1,1.3-.525c.174,0,.412.157.492.157a7.459,7.459,0,0,0,.815-.123c.125,0,.185.072.185.221,0,.2-.095.27-.193.27" transform="translate(-74.524 -11.641)" fill="#1a1818"/>
    <path id="Path_350" data-name="Path 350" d="M491.6,308.943c-.131,0-.354.08-.669.422a3.67,3.67,0,0,0-.65,1.028,2.717,2.717,0,0,0,1.178-.648,1,1,0,0,0,.342-.6.179.179,0,0,0-.2-.2m-1.408,1.713a2.254,2.254,0,0,0-.123.782.446.446,0,0,0,.422.5c.314,0,.536-.165.921-.51a.114.114,0,0,1,.115.149,1.774,1.774,0,0,1-1.4.8c-.526,0-.713-.492-.713-.924a3.276,3.276,0,0,1,1.31-2.363,1.687,1.687,0,0,1,1.053-.421.547.547,0,0,1,.556.526c0,.667-.87,1.108-2.137,1.458" transform="translate(-76.622 -11.641)" fill="#1a1818"/>
  </g>
</svg>
