<svg xmlns="http://www.w3.org/2000/svg" width="52.965" height="61.336" viewBox="0 0 52.965 61.336">
  <g id="Group_4" data-name="Group 4" transform="translate(0 0)">
    <path id="Path_32" data-name="Path 32" d="M610.762,225.1c-4.555-.528-7.057-2.595-7.757-4.294-.5,3.17.254,7.687,1.473,11.154h17.4C621.879,228.866,618.878,226.042,610.762,225.1Z" transform="translate(-592.895 -201.53)"/>
    <path id="Path_33" data-name="Path 33" d="M640.582,230.091h4.272a12.839,12.839,0,0,1,12.7-11.084v-4.238A17.085,17.085,0,0,0,640.582,230.091Z" transform="translate(-604.589 -199.658)"/>
    <path id="Path_34" data-name="Path 34" d="M649.314,232.774h4.46a6.717,6.717,0,0,1,6.487-4.977v-4.37A11.1,11.1,0,0,0,649.314,232.774Z" transform="translate(-607.296 -202.342)"/>
    <path id="Path_35" data-name="Path 35" d="M630.624,226.664h5.129A18.823,18.823,0,0,1,654.468,209.6v-5.891A24.7,24.7,0,0,0,630.624,226.664Z" transform="translate(-601.503 -196.232)"/>
    <path id="Path_36" data-name="Path 36" d="M637.513,243.553a18.023,18.023,0,0,0,2.257-4.063H606.242a18.023,18.023,0,0,0,2.257,4.063Z" transform="translate(-593.947 -207.32)"/>
    <path id="Path_37" data-name="Path 37" d="M603.514,199.115a13.4,13.4,0,0,0-4.37,9.55c0,4.873,4.437,5.5,7.423,5.976,3.2.508,7.845,1.258,9.907,3.665a12.193,12.193,0,0,0-3.312-6.459c-2.31-2.237-7.9-1.889-5.96-8.142.048,2.134,2.132,6.055,4.667,4.231,2.887-2.077.393-5.7-1.966-6.686a6.19,6.19,0,0,1,3.254-1.17c-1.1-2.1-4.028-1.257-4.028-1.257a7.155,7.155,0,0,1,3-1.992c-1.317-.919-2.931-1.854-5.242-.089-1.507-2.639-3.589-3.9-6.2-3.869a9,9,0,0,1,1.817,2.71c-4.037-1.818-7.115.886-10.267-.638.024,2.584,1.712,3.664,3.787,3.311-1.059,1.987-3.886,2.782-7.6.485,0,4.2,2.289,7.226,5.44,7.226C599.363,205.967,599.8,199.34,603.514,199.115Zm2.116-.072a.812.812,0,1,1-.248,1.121A.812.812,0,0,1,605.629,199.042Z" transform="translate(-588.425 -192.872)"/>
    <path id="Path_38" data-name="Path 38" d="M636.025,255.723c-2.574-.273-5.2.855-5.541,3.315h-9.54v-5.567a17.962,17.962,0,0,0,12.435-5.575H607.294a17.962,17.962,0,0,0,12.435,5.575v5.567h-9.552a3.222,3.222,0,0,0-3.65-2.439c-1.889.157,0,0,0,0s-8.9.749-8.9.963,5.156.06,8.7.064l0,.622c-3.546.246-8.7.442-8.7.66s5.155.232,8.7.359l0,.621c-3.55.131-8.7.148-8.7.366s5.154.411,8.7.66l0,.626c-3.543,0-8.7-.151-8.7.064s7.022.787,8.9.961a3.329,3.329,0,0,0,3.647-2.441h9.557v7.038a17.693,17.693,0,0,0-10.636,4.1H631.58a17.692,17.692,0,0,0-10.636-4.1v-7.038h9.54c.337,2.46,2.967,3.585,5.54,3.317,2.933-.282,6.953-1.572,7.019-3.856C642.978,257.295,638.958,256,636.025,255.723Z" transform="translate(-591.277 -209.925)"/>
  </g>
</svg>
