<svg id="Group_129" data-name="Group 129" xmlns="http://www.w3.org/2000/svg" width="70.777" height="85.125" viewBox="0 0 90.777 105.125">
  <path id="Path_32" data-name="Path 32" d="M616.411,228.167c-7.807-.9-12.1-4.447-13.295-7.359-.854,5.432.435,13.175,2.525,19.118h29.823C635.464,234.619,630.32,229.778,616.411,228.167Z" transform="translate(-585.789 -187.767)"/>
  <path id="Path_33" data-name="Path 33" d="M640.582,241.029H647.9a22,22,0,0,1,21.768-19v-7.264A29.281,29.281,0,0,0,640.582,241.029Z" transform="translate(-578.894 -188.871)"/>
  <path id="Path_34" data-name="Path 34" d="M649.314,239.447h7.644a11.512,11.512,0,0,1,11.118-8.53v-7.489A19.026,19.026,0,0,0,649.314,239.447Z" transform="translate(-577.298 -187.289)"/>
  <path id="Path_35" data-name="Path 35" d="M630.624,243.05h8.791a32.26,32.26,0,0,1,32.076-29.241v-10.1A42.341,42.341,0,0,0,630.624,243.05Z" transform="translate(-580.714 -190.891)"/>
  <path id="Path_36" data-name="Path 36" d="M659.838,246.454a30.888,30.888,0,0,0,3.869-6.964H606.242a30.888,30.888,0,0,0,3.869,6.964Z" transform="translate(-585.169 -184.353)"/>
  <path id="Path_37" data-name="Path 37" d="M614.286,203.571a22.965,22.965,0,0,0-7.489,16.368c0,8.352,7.6,9.431,12.723,10.242,5.484.871,13.445,2.156,16.981,6.282a20.9,20.9,0,0,0-5.676-11.07c-3.959-3.834-13.546-3.238-10.215-13.954.082,3.658,3.655,10.377,8,7.251,4.947-3.56.674-9.774-3.37-11.46a10.609,10.609,0,0,1,5.578-2c-1.883-3.607-6.9-2.155-6.9-2.155a12.263,12.263,0,0,1,5.139-3.413c-2.258-1.575-5.023-3.177-8.985-.153-2.583-4.523-6.151-6.686-10.632-6.632,1.366,1.748,2.349,2.569,3.114,4.645-6.919-3.117-12.194,1.519-17.6-1.093.041,4.429,2.934,6.279,6.491,5.675-1.816,3.405-6.66,4.768-13.017.832,0,7.195,3.923,12.384,9.323,12.384C607.172,215.316,607.914,203.958,614.286,203.571Zm3.626-.124a1.391,1.391,0,1,1-.425,1.922A1.391,1.391,0,0,1,617.912,203.447Z" transform="translate(-588.425 -192.872)"/>
  <path id="Path_38" data-name="Path 38" d="M663.436,261.311c-4.411-.467-8.92,1.465-9.5,5.682H637.59v-9.541A30.785,30.785,0,0,0,658.9,247.9H614.194a30.785,30.785,0,0,0,21.312,9.555v9.541H619.135c-.509-2.969-3.439-4.416-6.255-4.181-3.238.268,0-.008,0-.008-.021,0-15.249,1.283-15.249,1.651s8.836.1,14.908.11l0,1.067c-6.078.422-14.911.758-14.913,1.131s8.835.4,14.912.615l0,1.064c-6.085.225-14.913.254-14.918.627s8.833.7,14.913,1.131l0,1.073c-6.072.007-14.909-.259-14.908.11s12.036,1.35,15.246,1.648c2.553.232,5.7-1.216,6.251-4.183h16.38v12.063a30.323,30.323,0,0,0-18.228,7.034h38.541a30.323,30.323,0,0,0-18.228-7.034V268.846h16.351c.577,4.216,5.085,6.144,9.495,5.684,5.027-.483,11.916-2.694,12.031-6.609C675.352,264,668.463,261.787,663.436,261.311Z" transform="translate(-586.743 -182.817)"/>
</svg>
