<svg xmlns="http://www.w3.org/2000/svg" width="63.985" height="14.764" viewBox="0 0 63.985 14.764">
  <g id="Group_432" data-name="Group 432" transform="translate(0 0)">
    <path id="Path_355" data-name="Path 355" d="M415.231,297.41a28.045,28.045,0,0,1,10.006-1.618c15.783,0,29.789,10.563,39.518,10.563a28.045,28.045,0,0,1-10.006,1.618c-15.785,0-29.789-10.563-39.518-10.563m12.109-2.909c-7.7,0-15.067,2.655-17.539,5.128a5.43,5.43,0,0,0-1.8,3.977,4.627,4.627,0,0,0,2.239,3.951l1.41-1.317a4.112,4.112,0,0,1-2.265-3.815c0-1.941,1.733-3.882,5.084-3.882,7.972,0,23.455,10.722,38.177,10.722,7.7,0,15.067-2.655,17.539-5.128a5.446,5.446,0,0,0,1.8-3.977,4.633,4.633,0,0,0-2.239-3.952l-1.41,1.317a4.111,4.111,0,0,1,2.265,3.813c0,1.941-1.733,3.885-5.084,3.885-7.972,0-23.457-10.722-38.177-10.722" transform="translate(-408 -294.501)" fill="#111"/>
  </g>
</svg>
