<svg xmlns="http://www.w3.org/2000/svg" width="123" height="60.01" viewBox="0 0 123 60.01">
  <g id="Group_436" data-name="Group 436" transform="translate(-293.615 -133.872)">
    <g id="Group_1" data-name="Group 1" transform="translate(337.4 133.872)">
      <path id="Path_1" data-name="Path 1" d="M390.588,196.426h-.305a24.962,24.962,0,0,1-17.626-7.225l.429-.434a24.354,24.354,0,0,0,16.892,7.047v-1.948h.61Z" transform="translate(-355.159 -146.205)" fill="#2b2e34"/>
      <path id="Path_2" data-name="Path 2" d="M373.087,141.531l-.429-.434a24.964,24.964,0,0,1,17.625-7.225h.305v2.56h-.61v-1.948A24.354,24.354,0,0,0,373.087,141.531Z" transform="translate(-355.159 -133.872)" fill="#2b2e34"/>
      <path id="Path_3" data-name="Path 3" d="M369.1,143.164a24.465,24.465,0,0,0-18.4-8.68v1.948h-.61v-2.56h.3a25.081,25.081,0,0,1,19.177,8.9Z" transform="translate(-350.088 -133.872)" fill="#2b2e34"/>
      <path id="Path_4" data-name="Path 4" d="M350.393,195.953h-.3v-2.56h.61v1.948a24.468,24.468,0,0,0,18.406-8.681l.467.394A25.08,25.08,0,0,1,350.393,195.953Z" transform="translate(-350.088 -145.732)" fill="#2b2e34"/>
    </g>
    <g id="Group_2" data-name="Group 2" transform="translate(337.436 190.564)">
      <path id="Path_5" data-name="Path 5" d="M352.656,210.249h-.916l-.442-.725h-.316v.725h-.847v-3.162h1.2a1.211,1.211,0,0,1,1.329,1.242,1.1,1.1,0,0,1-.572,1.023Zm-1.363-1.4a.523.523,0,0,0,0-1.047h-.311v1.047Z" transform="translate(-350.135 -207.013)" fill="#2b2e34"/>
      <path id="Path_6" data-name="Path 6" d="M355.685,207.087H357.9v.712h-1.372v.734h1.144v.674h-1.144v.33h1.437v.712h-2.283Z" transform="translate(-351.382 -207.013)" fill="#2b2e34"/>
      <path id="Path_7" data-name="Path 7" d="M360.605,209.7l.613-.461a.8.8,0,0,0,.661.344c.251,0,.4-.074.4-.251,0-.136-.1-.2-.312-.27l-.371-.125a.961.961,0,0,1,.292-1.9,1.28,1.28,0,0,1,1.051.419l-.483.507a.657.657,0,0,0-.521-.228c-.2,0-.306.093-.306.219s.07.181.223.233l.419.139c.632.21.846.512.846.958,0,.582-.362,1-1.2,1A1.567,1.567,0,0,1,360.605,209.7Z" transform="translate(-352.487 -207.003)" fill="#2b2e34"/>
      <path id="Path_8" data-name="Path 8" d="M366.143,207.087h.846v3.162h-.846Z" transform="translate(-353.732 -207.013)" fill="#2b2e34"/>
      <path id="Path_9" data-name="Path 9" d="M369.742,207.087h1.223a1.581,1.581,0,1,1,0,3.162h-1.223Zm1.13,2.445a.865.865,0,0,0,0-1.729h-.283v1.729Z" transform="translate(-354.54 -207.013)" fill="#2b2e34"/>
      <path id="Path_10" data-name="Path 10" d="M375.646,207.087h2.218v.712h-1.372v.734h1.144v.674h-1.144v.33h1.437v.712h-2.283Z" transform="translate(-355.867 -207.013)" fill="#2b2e34"/>
      <path id="Path_11" data-name="Path 11" d="M381.691,208.651v1.576h-.8v-3.2c0-.028.015-.05.065-.009l1.986,1.636v-1.586h.795v3.208c0,.038-.013.051-.065.009Z" transform="translate(-357.046 -206.992)" fill="#2b2e34"/>
      <path id="Path_12" data-name="Path 12" d="M388.5,210.28a1.612,1.612,0,0,1-1.646-1.623,1.594,1.594,0,0,1,1.6-1.618,1.536,1.536,0,0,1,1.367.679l-.637.433a.793.793,0,0,0-1.464.506.8.8,0,0,0,.776.889.761.761,0,0,0,.744-.437l.65.418A1.459,1.459,0,0,1,388.5,210.28Z" transform="translate(-358.385 -207.003)" fill="#2b2e34"/>
      <path id="Path_13" data-name="Path 13" d="M392.968,207.087h2.217v.712h-1.371v.734h1.143v.674h-1.143v.33h1.436v.712h-2.283Z" transform="translate(-359.758 -207.013)" fill="#2b2e34"/>
    </g>
    <path id="Path_14" data-name="Path 14" d="M390.277,182.492a22.8,22.8,0,0,1-17.636-8.318l.471-.388A22.246,22.246,0,0,0,412.5,160.647l.013-.292h21.244v-1.44H412.513l-.013-.292A22.246,22.246,0,0,0,373.1,145.5l-.471-.388a22.857,22.857,0,0,1,40.464,13.2h21.273v2.661H413.095A22.8,22.8,0,0,1,390.277,182.492Z" transform="translate(-17.753 -0.653)" fill="#2b2e34"/>
    <path id="Path_15" data-name="Path 15" d="M390.643,181.036a20.694,20.694,0,0,1-16.382-7.979l.481-.377a20.2,20.2,0,1,0,0-24.9l-.481-.378a20.806,20.806,0,1,1,16.383,33.633Z" transform="translate(-18.119 -1.247)" fill="#2b2e34"/>
    <path id="Path_16" data-name="Path 16" d="M401.164,154.506h5.126v.712c-.769,0-1.994.285-1.994,1.281v16.232h-7.517L384.648,156.67v14.068c0,1,1.167,1.282,2.278,1.282v.712h-5.7v-.712c.854,0,2.278-.285,2.278-1.282V156.5c0-1.252-1.224-1.281-2.278-1.281v-.712h13.583l8.343,11.106V156.5c0-1-1.224-1.281-1.993-1.281Z" transform="translate(-19.685 -4.636)" fill="#2b2e34"/>
    <path id="Path_17" data-name="Path 17" d="M337.7,182.492a22.8,22.8,0,0,1-22.817-21.525H293.615v-2.661h21.273A22.856,22.856,0,1,1,337.7,182.492Zm-43.48-22.136H315.47l.013.292a22.245,22.245,0,1,0,0-2.023c0,.292,0,.292-3.627.292H294.225Z" transform="translate(0 -0.653)" fill="#2b2e34"/>
    <path id="Path_18" data-name="Path 18" d="M344.452,181.036a20.806,20.806,0,1,1,20.806-20.806A20.829,20.829,0,0,1,344.452,181.036Zm0-41a20.2,20.2,0,1,0,20.2,20.2A20.218,20.218,0,0,0,344.452,140.034Z" transform="translate(-6.747 -1.247)" fill="#2b2e34"/>
    <g id="Group_3" data-name="Group 3" transform="translate(323.278 148.764)">
      <path id="Path_19" data-name="Path 19" d="M346.3,153.079c9.166,0,14.426,4.3,14.426,10.219s-5.26,10.219-14.426,10.219-14.427-4.3-14.427-10.219S337.134,153.079,346.3,153.079Zm0,19.686c3.756,0,4.929-1.924,4.929-9.408s-1.172-9.527-4.929-9.527-4.93,1.743-4.93,9.527C341.372,170.842,342.544,172.765,346.3,172.765Z" transform="translate(-331.874 -153.079)" fill="#2b2e34"/>
    </g>
  </g>
</svg>
