<svg xmlns="http://www.w3.org/2000/svg" width="161" height="143.346" viewBox="0 0 161 143.346" fill="#fff">
  <g id="Group_5" data-name="Group 5" transform="translate(-510.148 -192.872)">
    <g id="Group_1" data-name="Group 1" transform="translate(510.148 262.637)">
      <path id="Path_1" data-name="Path 1" d="M510.148,305.822c0-6.724,5.543-11.415,11.972-11.415s11.972,4.69,11.972,11.415-5.543,11.447-11.972,11.447S510.148,312.545,510.148,305.822Zm17.843,0c0-3.51-2.132-6.232-5.871-6.232s-5.871,2.722-5.871,6.232,2.132,6.265,5.871,6.265S527.991,309.331,527.991,305.822Z" transform="translate(-510.148 -294.105)"/>
      <path id="Path_2" data-name="Path 2" d="M550.783,294.787h5.97v17.286h9.479v5.018H550.783Z" transform="translate(-522.742 -294.223)"/>
      <path id="Path_3" data-name="Path 3" d="M570.743,294.787H577.3l5.051,9.086,5.019-9.086h6.265l-8.4,14.432v7.872h-5.969v-7.708Z" transform="translate(-528.928 -294.223)"/>
      <path id="Path_4" data-name="Path 4" d="M608.812,294.14c0-.2.131-.23.3-.066l11.446,11.054,11.317-11.054c.131-.132.3-.1.3.066v22.7H626.2V306.571l-5.609,5.543c-.131.131-.164.131-.295,0l-5.511-5.543v10.266h-5.969Z" transform="translate(-540.726 -293.969)"/>
      <path id="Path_5" data-name="Path 5" d="M656.129,317.091h-5.97v-22.3h8.463c6,0,9.381,3.805,9.381,8.758s-3.379,8.725-9.381,8.725h-2.493Zm2.2-9.872c2.69,0,3.674-1.509,3.674-3.674s-.984-3.706-3.674-3.706h-2.2v7.38Z" transform="translate(-553.54 -294.223)"/>
      <path id="Path_6" data-name="Path 6" d="M680.575,305.822c0-6.724,5.543-11.415,11.971-11.415s11.973,4.69,11.973,11.415-5.543,11.447-11.973,11.447S680.575,312.545,680.575,305.822Zm17.843,0c0-3.51-2.132-6.232-5.872-6.232s-5.871,2.722-5.871,6.232,2.132,6.265,5.871,6.265S698.418,309.331,698.418,305.822Z" transform="translate(-562.967 -294.105)"/>
      <path id="Path_7" data-name="Path 7" d="M717.787,313.169l4.33-3.247a5.643,5.643,0,0,0,4.657,2.426c1.771,0,2.821-.524,2.821-1.771,0-.951-.722-1.41-2.2-1.9l-2.624-.885c-3.247-1.083-5.543-3.051-5.543-6.724,0-4.4,3.642-6.659,7.61-6.659,3.936,0,6.1,1.41,7.413,2.951l-3.412,3.575a4.621,4.621,0,0,0-3.673-1.607c-1.443,0-2.165.656-2.165,1.541,0,.854.492,1.279,1.575,1.64l2.951.984c4.461,1.476,5.97,3.608,5.97,6.757,0,4.1-2.559,7.053-8.462,7.053C722.019,317.3,719.165,315.006,717.787,313.169Z" transform="translate(-574.499 -294.105)"/>
      <path id="Path_8" data-name="Path 8" d="M519.463,344.226v11.12h-5.608v-22.6c0-.2.1-.361.459-.066l14.006,11.545V333.041h5.609v22.633c0,.262-.1.361-.46.066Z" transform="translate(-511.297 -305.917)"/>
      <path id="Path_9" data-name="Path 9" d="M553.674,355.326h-5.839l10.857-22.7c.1-.23.3-.23.393,0l10.825,22.7h-6.167l-.853-1.9h-8.4Zm4.953-11.546-2.23,5.183h4.526Z" transform="translate(-521.828 -305.897)"/>
      <path id="Path_10" data-name="Path 10" d="M580.059,344.31c0-6.724,5.543-11.415,11.972-11.415S604,337.585,604,344.31s-5.543,11.447-11.972,11.447S580.059,351.034,580.059,344.31Zm17.843,0c0-3.51-2.132-6.232-5.871-6.232s-5.871,2.722-5.871,6.232,2.132,6.265,5.871,6.265S597.9,347.819,597.9,344.31Z" transform="translate(-531.815 -306.033)"/>
      <path id="Path_11" data-name="Path 11" d="M620.361,346.953V333.275h5.969v13.613c0,2.526,1.181,3.969,3.706,3.969s3.706-1.443,3.706-3.969V333.275h5.971v13.678c0,6-4.1,8.954-9.677,8.954S620.361,352.955,620.361,346.953Z" transform="translate(-544.305 -306.151)"/>
      <path id="Path_12" data-name="Path 12" d="M652.963,351.657l4.33-3.247a5.643,5.643,0,0,0,4.657,2.426c1.771,0,2.821-.524,2.821-1.771,0-.951-.722-1.411-2.2-1.9l-2.624-.885c-3.247-1.082-5.543-3.051-5.543-6.724,0-4.4,3.641-6.659,7.609-6.659,3.936,0,6.1,1.411,7.414,2.952l-3.412,3.575a4.622,4.622,0,0,0-3.673-1.607c-1.443,0-2.165.656-2.165,1.542,0,.853.492,1.279,1.574,1.64l2.952.983c4.461,1.476,5.97,3.608,5.97,6.757,0,4.1-2.559,7.053-8.462,7.053C657.195,355.79,654.34,353.494,652.963,351.657Z" transform="translate(-554.409 -306.033)"/>
      <path id="Path_13" data-name="Path 13" d="M681.859,351.657l4.33-3.247a5.644,5.644,0,0,0,4.657,2.426c1.771,0,2.821-.524,2.821-1.771,0-.951-.722-1.411-2.2-1.9l-2.624-.885c-3.247-1.082-5.543-3.051-5.543-6.724,0-4.4,3.641-6.659,7.609-6.659,3.936,0,6.1,1.411,7.413,2.952l-3.411,3.575a4.623,4.623,0,0,0-3.674-1.607c-1.442,0-2.164.656-2.164,1.542,0,.853.492,1.279,1.574,1.64l2.952.983c4.461,1.476,5.971,3.608,5.971,6.757,0,4.1-2.559,7.053-8.463,7.053C686.091,355.79,683.236,353.494,681.859,351.657Z" transform="translate(-563.365 -306.033)"/>
      <path id="Path_14" data-name="Path 14" d="M716.118,355.326h-5.839l10.857-22.7c.1-.23.3-.23.393,0l10.825,22.7h-6.167l-.852-1.9h-8.4Zm4.952-11.546-2.23,5.183h4.526Z" transform="translate(-572.172 -305.897)"/>
    </g>
    <g id="Group_3" data-name="Group 3" transform="translate(535.729 327.174)">
      <g id="Group_2" data-name="Group 2" transform="translate(0)">
        <path id="Path_15" data-name="Path 15" d="M547.217,392.567a3.944,3.944,0,0,1,4.024-4.211,3.851,3.851,0,0,1,3.237,1.631.642.642,0,0,1-.07.8l-.469.48c-.165.176-.294.258-.411.258-.152,0-.258-.164-.328-.5-.258-1.244-1.044-2.135-2.123-2.135-1.478,0-2.276,1.642-2.276,3.226,0,1.736.868,3.448,2.757,3.448a1.524,1.524,0,0,0,1.466-.774v-1.29l-.609-.411c-.2-.141-.164-.235.082-.235h2.5c.246,0,.282.094.083.235l-.611.411v3.014c0,.141-.035.223-.094.223-.035,0-.094-.036-.164-.117l-1.161-1.3a2.469,2.469,0,0,1-2.334,1.491C548.871,396.8,547.217,395.113,547.217,392.567Z" transform="translate(-547.217 -387.758)"/>
        <path id="Path_16" data-name="Path 16" d="M560.351,397.109v-4.083h-.306c-.387,0-.422-.128-.081-.3l1.477-.868a.326.326,0,0,1,.176-.048c.106,0,.176.083.176.259v1.043l.739-.8a1.07,1.07,0,0,1,.88-.458.777.777,0,0,1,.786.786.8.8,0,0,1-.786.809.782.782,0,0,1-.739-.727l-.88.938v3.449l.6.411c.2.141.176.235-.07.235h-2.5c-.246,0-.282-.094-.07-.235Z" transform="translate(-551.059 -388.827)"/>
        <path id="Path_17" data-name="Path 17" d="M566.784,394.805a2.838,2.838,0,0,1,2.9-3.049,2.417,2.417,0,0,1,2.533,2.7h-3.941c.035,1.185.563,2.381,1.9,2.381a2.1,2.1,0,0,0,1.807-1.126c.07-.094.117-.141.152-.141s.035.07,0,.211a2.616,2.616,0,0,1-2.51,2.076A2.84,2.84,0,0,1,566.784,394.805Zm3.824-.88c0-.833-.305-1.642-1.115-1.642-.739,0-1.1.751-1.2,1.642Z" transform="translate(-553.281 -388.811)"/>
        <path id="Path_18" data-name="Path 18" d="M575.4,394.805a2.838,2.838,0,0,1,2.9-3.049,2.417,2.417,0,0,1,2.533,2.7h-3.941c.035,1.185.563,2.381,1.9,2.381a2.1,2.1,0,0,0,1.806-1.126c.07-.094.117-.141.153-.141s.035.07,0,.211a2.617,2.617,0,0,1-2.51,2.076A2.84,2.84,0,0,1,575.4,394.805Zm3.824-.88c0-.833-.3-1.642-1.114-1.642-.74,0-1.1.751-1.2,1.642Z" transform="translate(-555.952 -388.811)"/>
        <path id="Path_19" data-name="Path 19" d="M584.541,395.844v-6.9h-.305c-.387,0-.422-.13-.082-.305l1.478-.868a.331.331,0,0,1,.176-.047c.106,0,.175.082.175.257v5.443l2.194-2.17-.352-.352c-.176-.176-.128-.282.117-.282h1.642c.246,0,.271.082.059.21l-.833.493-1.255,1.244,2.158,3.144.857.551c.211.13.176.224-.07.224h-2.733c-.246,0-.281-.106-.094-.27l.375-.329-1.548-2.275-.517.516v1.713l.6.411c.2.141.176.235-.07.235h-2.5c-.246,0-.282-.094-.07-.235Z" transform="translate(-558.556 -387.563)"/>
        <path id="Path_20" data-name="Path 20" d="M599.042,388.526h2.5c.246,0,.27.094.07.235l-.6.411v4.164c0,1.97.609,2.992,2.1,2.992s2.369-1.068,2.369-2.874v-4.281l-.6-.411c-.2-.141-.176-.235.07-.235H606.6c.247,0,.27.094.07.235l-.6.411v4.281c0,2.182-1.243,3.4-3.121,3.4a3.051,3.051,0,0,1-3.378-3.4v-4.281l-.6-.411C598.773,388.62,598.8,388.526,599.042,388.526Z" transform="translate(-563.215 -387.81)"/>
        <path id="Path_21" data-name="Path 21" d="M611.945,397.109v-4.083h-.306c-.386,0-.422-.128-.082-.3l1.478-.868a.326.326,0,0,1,.176-.048c.105,0,.176.083.176.259v1.043l.739-.8a1.069,1.069,0,0,1,.88-.458.776.776,0,0,1,.786.786.8.8,0,0,1-.786.809.782.782,0,0,1-.739-.727l-.88.938v3.449l.6.411c.2.141.176.235-.07.235h-2.5c-.246,0-.282-.094-.07-.235Z" transform="translate(-567.049 -388.827)"/>
        <path id="Path_22" data-name="Path 22" d="M620.04,387.774a.331.331,0,0,1,.176-.047c.106,0,.176.082.176.257v3.625a1.924,1.924,0,0,1,1.83-1.1c1.419,0,2.463,1.219,2.463,3.049s-1.043,3.05-2.463,3.05a1.973,1.973,0,0,1-1.959-1.4l-1.044,1.091c-.07.081-.129.117-.164.117-.07,0-.1-.082-.1-.223v-7.249h-.306c-.386,0-.422-.13-.082-.305Zm3.144,5.783c0-1.161-.352-2.439-1.4-2.439-1.009,0-1.4,1.243-1.4,2.439s.387,2.44,1.4,2.44C622.832,396,623.184,394.706,623.184,393.557Z" transform="translate(-569.256 -387.563)"/>
        <path id="Path_23" data-name="Path 23" d="M633.385,394.254V396.8l.551.211c.235.082.235.2,0,.27l-1.619.516a.347.347,0,0,1-.141.023c-.153,0-.246-.106-.246-.293v-1.044a2.119,2.119,0,0,1-1.959,1.373,1.409,1.409,0,0,1-1.513-1.432c0-1.29,1.3-2.016,3.473-2.17,0-1.466-.247-1.971-1-1.971-1.325,0-.644,1.865-1.771,1.865-1.1,0-.7-2.393,1.76-2.393A2.214,2.214,0,0,1,633.385,394.254Zm-1.454.985v-.574c-1.56.117-2.065.856-2.065,1.477a.8.8,0,0,0,.8.845C631.332,396.987,631.873,396.237,631.931,395.24Z" transform="translate(-572.395 -388.811)"/>
        <path id="Path_24" data-name="Path 24" d="M637.87,397.093v-4.083h-.306c-.386,0-.422-.128-.082-.3l1.478-.868a.325.325,0,0,1,.175-.048c.106,0,.176.083.176.259V393.5a3.249,3.249,0,0,1,2.523-1.747c.856,0,1.15.6,1.15,1.489v3.848l.6.411c.211.141.176.235-.07.235h-2.5c-.246,0-.269-.094-.07-.235l.6-.411V393.4c0-.6-.153-.822-.47-.822-.574,0-1.337.716-1.76,1.642v2.874l.6.411c.2.141.175.235-.07.235h-2.5c-.246,0-.282-.094-.07-.235Z" transform="translate(-575.083 -388.811)"/>
        <path id="Path_25" data-name="Path 25" d="M656.118,388.884c-1.478,0-2.275,1.642-2.275,3.226,0,1.806.868,3.366,2.756,3.366a3.367,3.367,0,0,0,2.992-1.807c.059-.094.094-.141.117-.141s.024.059-.012.188a3.7,3.7,0,0,1-3.554,3.085,4.014,4.014,0,0,1-3.882-4.235,3.944,3.944,0,0,1,4.023-4.211,3.854,3.854,0,0,1,3.238,1.631.623.623,0,0,1-.07.785l-.516.551a.545.545,0,0,1-.375.235c-.153,0-.258-.153-.317-.469C657.995,389.787,657.221,388.884,656.118,388.884Z" transform="translate(-579.771 -387.758)"/>
        <path id="Path_26" data-name="Path 26" d="M665.974,391.854a.322.322,0,0,1,.175-.048c.106,0,.176.083.176.259v4.164c0,.6.235.821.551.821a1.987,1.987,0,0,0,1.525-1.642v-2.382H668.1c-.387,0-.422-.128-.082-.3l1.478-.868a.326.326,0,0,1,.176-.048c.1,0,.176.083.176.259v4.668l.562.258c.235.106.224.235-.011.3l-1.607.516a.349.349,0,0,1-.141.023c-.152,0-.246-.106-.246-.293v-1.208a2.868,2.868,0,0,1-2.287,1.537c-.857,0-1.232-.6-1.232-1.491v-3.355h-.305c-.386,0-.422-.128-.081-.3Z" transform="translate(-583.492 -388.827)"/>
        <path id="Path_27" data-name="Path 27" d="M674.64,395.771v-4.083h-.305c-.387,0-.423-.128-.083-.3l1.478-.868a.326.326,0,0,1,.176-.048c.106,0,.176.083.176.259v5.044l.6.411c.2.141.176.235-.07.235h-2.5c-.246,0-.282-.094-.07-.235Zm.715-8.282a.868.868,0,1,1-.868.868A.819.819,0,0,1,675.355,387.489Z" transform="translate(-586.479 -387.489)"/>
        <path id="Path_28" data-name="Path 28" d="M678.959,396.436c0-.282.046-.434.128-.434s.176.117.306.329a1.722,1.722,0,0,0,1.477,1.056.8.8,0,0,0,.892-.763c0-1.313-2.933-1.419-2.933-3.237,0-1.22,1.3-1.63,2.382-1.63a4.3,4.3,0,0,1,1.665.351v.95q0,.423-.106.423c-.07,0-.164-.118-.293-.329a1.485,1.485,0,0,0-1.338-.927.814.814,0,0,0-.879.763c0,1.22,2.944,1.314,2.944,3.179,0,1.138-1.079,1.689-2.369,1.689a5.263,5.263,0,0,1-1.877-.352Z" transform="translate(-588.006 -388.811)"/>
        <path id="Path_29" data-name="Path 29" d="M686.608,395.771v-4.083H686.3c-.386,0-.422-.128-.082-.3l1.478-.868a.326.326,0,0,1,.176-.048c.106,0,.176.083.176.259v5.044l.6.411c.2.141.176.235-.07.235h-2.5c-.246,0-.281-.094-.07-.235Zm.715-8.282a.868.868,0,1,1-.868.868A.819.819,0,0,1,687.323,387.489Z" transform="translate(-590.188 -387.489)"/>
        <path id="Path_30" data-name="Path 30" d="M691.317,397.093v-4.083h-.306c-.386,0-.422-.128-.082-.3l1.478-.868a.325.325,0,0,1,.176-.048c.106,0,.176.083.176.259V393.5a3.248,3.248,0,0,1,2.522-1.747c.856,0,1.15.6,1.15,1.489v3.848l.6.411c.212.141.176.235-.07.235h-2.5c-.246,0-.269-.094-.07-.235l.6-.411V393.4c0-.6-.153-.822-.47-.822-.574,0-1.337.716-1.759,1.642v2.874l.6.411c.2.141.176.235-.07.235h-2.5c-.246,0-.282-.094-.07-.235Z" transform="translate(-591.648 -388.811)"/>
        <path id="Path_31" data-name="Path 31" d="M700.827,394.805a2.838,2.838,0,0,1,2.9-3.049,2.418,2.418,0,0,1,2.534,2.7h-3.942c.035,1.185.563,2.381,1.9,2.381a2.1,2.1,0,0,0,1.807-1.126c.07-.094.117-.141.152-.141s.035.07,0,.211a2.617,2.617,0,0,1-2.51,2.076A2.84,2.84,0,0,1,700.827,394.805Zm3.824-.88c0-.833-.3-1.642-1.114-1.642-.739,0-1.1.751-1.2,1.642Z" transform="translate(-594.824 -388.811)"/>
      </g>
    </g>
    <g id="Group_4" data-name="Group 4" transform="translate(564.165 192.872)">
      <path id="Path_32" data-name="Path 32" d="M610.762,225.1c-4.555-.528-7.057-2.595-7.757-4.294-.5,3.17.254,7.687,1.473,11.154h17.4C621.879,228.866,618.878,226.042,610.762,225.1Z" transform="translate(-592.895 -201.53)"/>
      <path id="Path_33" data-name="Path 33" d="M640.582,230.091h4.272a12.839,12.839,0,0,1,12.7-11.084v-4.238A17.085,17.085,0,0,0,640.582,230.091Z" transform="translate(-604.589 -199.658)"/>
      <path id="Path_34" data-name="Path 34" d="M649.314,232.774h4.46a6.717,6.717,0,0,1,6.487-4.977v-4.37A11.1,11.1,0,0,0,649.314,232.774Z" transform="translate(-607.296 -202.342)"/>
      <path id="Path_35" data-name="Path 35" d="M630.624,226.664h5.129A18.823,18.823,0,0,1,654.468,209.6v-5.891A24.7,24.7,0,0,0,630.624,226.664Z" transform="translate(-601.503 -196.232)"/>
      <path id="Path_36" data-name="Path 36" d="M637.513,243.553a18.023,18.023,0,0,0,2.257-4.063H606.242a18.023,18.023,0,0,0,2.257,4.063Z" transform="translate(-593.947 -207.32)"/>
      <path id="Path_37" data-name="Path 37" d="M603.514,199.115a13.4,13.4,0,0,0-4.37,9.55c0,4.873,4.437,5.5,7.423,5.976,3.2.508,7.845,1.258,9.907,3.665a12.193,12.193,0,0,0-3.312-6.459c-2.31-2.237-7.9-1.889-5.96-8.142.048,2.134,2.132,6.055,4.667,4.231,2.887-2.077.393-5.7-1.966-6.686a6.19,6.19,0,0,1,3.254-1.17c-1.1-2.1-4.028-1.257-4.028-1.257a7.155,7.155,0,0,1,3-1.992c-1.317-.919-2.931-1.854-5.242-.089-1.507-2.639-3.589-3.9-6.2-3.869a9,9,0,0,1,1.817,2.71c-4.037-1.818-7.115.886-10.267-.638.024,2.584,1.712,3.664,3.787,3.311-1.059,1.987-3.886,2.782-7.6.485,0,4.2,2.289,7.226,5.44,7.226C599.363,205.967,599.8,199.34,603.514,199.115Zm2.116-.072a.812.812,0,1,1-.248,1.121A.812.812,0,0,1,605.629,199.042Z" transform="translate(-588.425 -192.872)"/>
      <path id="Path_38" data-name="Path 38" d="M636.025,255.723c-2.574-.273-5.2.855-5.541,3.315h-9.54v-5.567a17.962,17.962,0,0,0,12.435-5.575H607.294a17.962,17.962,0,0,0,12.435,5.575v5.567h-9.552a3.222,3.222,0,0,0-3.65-2.439c-1.889.157,0,0,0,0s-8.9.749-8.9.963,5.156.06,8.7.064l0,.622c-3.546.246-8.7.442-8.7.66s5.155.232,8.7.359l0,.621c-3.55.131-8.7.148-8.7.366s5.154.411,8.7.66l0,.626c-3.543,0-8.7-.151-8.7.064s7.022.787,8.9.961a3.329,3.329,0,0,0,3.647-2.441h9.557v7.038a17.693,17.693,0,0,0-10.636,4.1H631.58a17.692,17.692,0,0,0-10.636-4.1v-7.038h9.54c.337,2.46,2.967,3.585,5.54,3.317,2.933-.282,6.953-1.572,7.019-3.856C642.978,257.295,638.958,256,636.025,255.723Z" transform="translate(-591.277 -209.925)"/>
    </g>
  </g>
</svg>
